<svg width="1920" height="661" viewBox="0 0 1920 661" fill="none" xmlns="http://www.w3.org/2000/svg">
<rect width="1920" height="661" fill="#633BBC"/>
<path d="M255.547 305L272.266 191.25H285.859L269.141 305H255.547ZM279.688 305L296.406 191.25H310L293.281 305H279.688ZM319.219 237.266H250.781V223.75H319.219V237.266ZM314.141 272.969H245.938V259.453H314.141V272.969ZM332.734 185H354.531V285.391L352.969 305H332.734V185ZM398.438 259.922V265.469C398.438 272.344 397.891 278.333 396.797 283.438C395.755 288.542 394.115 292.812 391.875 296.25C389.688 299.688 386.875 302.266 383.438 303.984C380 305.703 375.938 306.562 371.25 306.562C367.031 306.562 363.411 305.573 360.391 303.594C357.37 301.562 354.818 298.776 352.734 295.234C350.703 291.641 349.036 287.448 347.734 282.656C346.484 277.812 345.573 272.526 345 266.797V258.594C345.521 252.969 346.406 247.734 347.656 242.891C348.958 238.047 350.625 233.854 352.656 230.312C354.688 226.719 357.214 223.932 360.234 221.953C363.307 219.922 366.927 218.906 371.094 218.906C375.885 218.906 380 219.792 383.438 221.562C386.875 223.281 389.688 225.859 391.875 229.297C394.115 232.734 395.755 237.031 396.797 242.188C397.891 247.292 398.438 253.203 398.438 259.922ZM376.641 265.469V259.922C376.641 256.016 376.484 252.656 376.172 249.844C375.859 247.031 375.286 244.688 374.453 242.812C373.62 240.938 372.422 239.531 370.859 238.594C369.349 237.656 367.344 237.188 364.844 237.188C362.604 237.188 360.729 237.63 359.219 238.516C357.708 239.349 356.406 240.599 355.312 242.266C354.271 243.88 353.49 245.807 352.969 248.047C352.5 250.234 352.24 252.656 352.188 255.312V270.078C352.24 273.672 352.682 276.849 353.516 279.609C354.349 282.37 355.677 284.505 357.5 286.016C359.375 287.526 361.875 288.281 365 288.281C367.448 288.281 369.427 287.865 370.938 287.031C372.448 286.198 373.62 284.87 374.453 283.047C375.339 281.224 375.911 278.88 376.172 276.016C376.484 273.099 376.641 269.583 376.641 265.469ZM409.375 265.625V259.922C409.375 253.307 410.156 247.448 411.719 242.344C413.333 237.24 415.625 232.969 418.594 229.531C421.562 226.042 425.13 223.411 429.297 221.641C433.516 219.818 438.229 218.906 443.438 218.906C448.698 218.906 453.411 219.818 457.578 221.641C461.797 223.411 465.391 226.042 468.359 229.531C471.38 232.969 473.698 237.24 475.312 242.344C476.927 247.448 477.734 253.307 477.734 259.922V265.625C477.734 272.188 476.927 278.021 475.312 283.125C473.698 288.229 471.38 292.526 468.359 296.016C465.391 299.505 461.823 302.135 457.656 303.906C453.49 305.677 448.802 306.562 443.594 306.562C438.385 306.562 433.672 305.677 429.453 303.906C425.286 302.135 421.693 299.505 418.672 296.016C415.651 292.526 413.333 288.229 411.719 283.125C410.156 278.021 409.375 272.188 409.375 265.625ZM431.25 259.922V265.625C431.25 269.531 431.51 272.917 432.031 275.781C432.604 278.646 433.411 281.016 434.453 282.891C435.547 284.766 436.849 286.146 438.359 287.031C439.87 287.917 441.615 288.359 443.594 288.359C445.573 288.359 447.344 287.917 448.906 287.031C450.469 286.146 451.745 284.766 452.734 282.891C453.776 281.016 454.531 278.646 455 275.781C455.521 272.917 455.781 269.531 455.781 265.625V259.922C455.781 256.12 455.495 252.786 454.922 249.922C454.349 247.005 453.542 244.635 452.5 242.812C451.458 240.938 450.156 239.531 448.594 238.594C447.083 237.604 445.365 237.109 443.438 237.109C441.51 237.109 439.792 237.604 438.281 238.594C436.823 239.531 435.547 240.938 434.453 242.812C433.411 244.635 432.604 247.005 432.031 249.922C431.51 252.786 431.25 256.12 431.25 259.922ZM513.438 239.297V305H491.562V220.469H512.188L513.438 239.297ZM533.359 219.844L533.047 241.641C532.057 241.432 530.859 241.276 529.453 241.172C528.099 241.068 526.901 241.016 525.859 241.016C523.411 241.016 521.328 241.406 519.609 242.188C517.891 242.917 516.458 244.036 515.312 245.547C514.219 247.005 513.385 248.828 512.812 251.016C512.24 253.203 511.901 255.677 511.797 258.438L507.656 256.875C507.656 251.354 508.073 246.302 508.906 241.719C509.792 237.083 511.094 233.073 512.812 229.688C514.531 226.25 516.589 223.594 518.984 221.719C521.432 219.844 524.193 218.906 527.266 218.906C528.307 218.906 529.401 219.01 530.547 219.219C531.745 219.375 532.682 219.583 533.359 219.844ZM579.453 285.547V246.484C579.453 243.932 579.141 241.901 578.516 240.391C577.943 238.88 577.057 237.786 575.859 237.109C574.714 236.38 573.307 236.016 571.641 236.016C569.766 236.016 568.203 236.406 566.953 237.188C565.703 237.969 564.766 239.089 564.141 240.547C563.568 242.005 563.281 243.75 563.281 245.781H541.328C541.328 242.135 542.031 238.698 543.438 235.469C544.844 232.188 546.901 229.323 549.609 226.875C552.37 224.375 555.651 222.422 559.453 221.016C563.255 219.609 567.526 218.906 572.266 218.906C577.891 218.906 582.891 219.87 587.266 221.797C591.641 223.672 595.104 226.667 597.656 230.781C600.208 234.896 601.484 240.234 601.484 246.797V284.453C601.484 289.193 601.719 293.047 602.188 296.016C602.708 298.984 603.464 301.536 604.453 303.672V305H582.422C581.432 302.656 580.677 299.74 580.156 296.25C579.688 292.708 579.453 289.141 579.453 285.547ZM582.109 253.359L582.188 266.484H574.141C572.057 266.484 570.234 266.823 568.672 267.5C567.161 268.177 565.885 269.141 564.844 270.391C563.802 271.589 563.021 272.995 562.5 274.609C562.031 276.224 561.797 277.943 561.797 279.766C561.797 281.797 562.083 283.516 562.656 284.922C563.229 286.328 564.089 287.396 565.234 288.125C566.38 288.854 567.734 289.219 569.297 289.219C571.693 289.219 573.776 288.724 575.547 287.734C577.318 286.745 578.62 285.547 579.453 284.141C580.339 282.734 580.625 281.432 580.312 280.234L585.312 288.75C584.688 290.677 583.828 292.682 582.734 294.766C581.693 296.849 580.365 298.776 578.75 300.547C577.135 302.318 575.13 303.776 572.734 304.922C570.391 306.016 567.604 306.562 564.375 306.562C559.844 306.562 555.703 305.521 551.953 303.438C548.203 301.354 545.234 298.438 543.047 294.688C540.911 290.938 539.844 286.484 539.844 281.328C539.844 277.057 540.521 273.203 541.875 269.766C543.281 266.276 545.365 263.333 548.125 260.938C550.885 258.49 554.375 256.615 558.594 255.312C562.812 254.01 567.76 253.359 573.438 253.359H582.109ZM672.969 267.109H695.703C695.391 275.651 693.672 282.865 690.547 288.75C687.422 294.583 682.969 299.01 677.188 302.031C671.458 305.052 664.531 306.562 656.406 306.562C650.104 306.562 644.505 305.521 639.609 303.438C634.714 301.302 630.547 298.177 627.109 294.062C623.672 289.948 621.068 284.87 619.297 278.828C617.578 272.734 616.719 265.729 616.719 257.812V238.516C616.719 230.599 617.63 223.594 619.453 217.5C621.328 211.406 623.984 206.302 627.422 202.188C630.911 198.021 635.104 194.896 640 192.812C644.948 190.677 650.521 189.609 656.719 189.609C665 189.609 671.927 191.172 677.5 194.297C683.073 197.422 687.37 201.979 690.391 207.969C693.464 213.906 695.312 221.172 695.938 229.766H673.125C672.969 224.349 672.344 220.104 671.25 217.031C670.208 213.906 668.542 211.719 666.25 210.469C663.958 209.167 660.781 208.516 656.719 208.516C653.698 208.516 651.094 209.062 648.906 210.156C646.719 211.198 644.922 212.891 643.516 215.234C642.109 217.578 641.068 220.651 640.391 224.453C639.766 228.255 639.453 232.891 639.453 238.359V257.812C639.453 263.177 639.74 267.76 640.312 271.562C640.885 275.312 641.797 278.385 643.047 280.781C644.297 283.177 645.99 284.922 648.125 286.016C650.312 287.109 653.073 287.656 656.406 287.656C660.26 287.656 663.359 287.083 665.703 285.938C668.099 284.792 669.87 282.734 671.016 279.766C672.161 276.797 672.812 272.578 672.969 267.109ZM706.406 265.625V259.922C706.406 253.307 707.188 247.448 708.75 242.344C710.365 237.24 712.656 232.969 715.625 229.531C718.594 226.042 722.161 223.411 726.328 221.641C730.547 219.818 735.26 218.906 740.469 218.906C745.729 218.906 750.443 219.818 754.609 221.641C758.828 223.411 762.422 226.042 765.391 229.531C768.411 232.969 770.729 237.24 772.344 242.344C773.958 247.448 774.766 253.307 774.766 259.922V265.625C774.766 272.188 773.958 278.021 772.344 283.125C770.729 288.229 768.411 292.526 765.391 296.016C762.422 299.505 758.854 302.135 754.688 303.906C750.521 305.677 745.833 306.562 740.625 306.562C735.417 306.562 730.703 305.677 726.484 303.906C722.318 302.135 718.724 299.505 715.703 296.016C712.682 292.526 710.365 288.229 708.75 283.125C707.188 278.021 706.406 272.188 706.406 265.625ZM728.281 259.922V265.625C728.281 269.531 728.542 272.917 729.062 275.781C729.635 278.646 730.443 281.016 731.484 282.891C732.578 284.766 733.88 286.146 735.391 287.031C736.901 287.917 738.646 288.359 740.625 288.359C742.604 288.359 744.375 287.917 745.938 287.031C747.5 286.146 748.776 284.766 749.766 282.891C750.807 281.016 751.562 278.646 752.031 275.781C752.552 272.917 752.812 269.531 752.812 265.625V259.922C752.812 256.12 752.526 252.786 751.953 249.922C751.38 247.005 750.573 244.635 749.531 242.812C748.49 240.938 747.188 239.531 745.625 238.594C744.115 237.604 742.396 237.109 740.469 237.109C738.542 237.109 736.823 237.604 735.312 238.594C733.854 239.531 732.578 240.938 731.484 242.812C730.443 244.635 729.635 247.005 729.062 249.922C728.542 252.786 728.281 256.12 728.281 259.922ZM829.531 286.328V185H851.484V305L831.641 305.078L829.531 286.328ZM785.703 265.703V260.078C785.703 253.203 786.276 247.188 787.422 242.031C788.62 236.875 790.391 232.578 792.734 229.141C795.078 225.703 797.943 223.151 801.328 221.484C804.766 219.766 808.698 218.906 813.125 218.906C817.135 218.906 820.651 219.922 823.672 221.953C826.745 223.932 829.349 226.719 831.484 230.312C833.62 233.906 835.339 238.151 836.641 243.047C837.943 247.943 838.854 253.307 839.375 259.141V267.266C838.75 272.786 837.786 277.943 836.484 282.734C835.234 287.526 833.516 291.693 831.328 295.234C829.193 298.776 826.615 301.562 823.594 303.594C820.573 305.573 817.057 306.562 813.047 306.562C808.62 306.562 804.688 305.677 801.25 303.906C797.865 302.135 795 299.531 792.656 296.094C790.365 292.604 788.62 288.333 787.422 283.281C786.276 278.177 785.703 272.318 785.703 265.703ZM807.578 260.078V265.703C807.578 269.661 807.76 273.073 808.125 275.938C808.542 278.75 809.193 281.068 810.078 282.891C811.016 284.661 812.24 285.99 813.75 286.875C815.26 287.708 817.135 288.125 819.375 288.125C822.292 288.125 824.661 287.396 826.484 285.938C828.307 284.427 829.661 282.37 830.547 279.766C831.484 277.109 832.005 274.062 832.109 270.625V255.859C832.005 252.995 831.667 250.417 831.094 248.125C830.521 245.833 829.714 243.88 828.672 242.266C827.63 240.651 826.328 239.401 824.766 238.516C823.255 237.63 821.484 237.188 819.453 237.188C817.266 237.188 815.391 237.63 813.828 238.516C812.318 239.401 811.12 240.781 810.234 242.656C809.349 244.479 808.672 246.849 808.203 249.766C807.786 252.63 807.578 256.068 807.578 260.078ZM905.234 285.547V246.484C905.234 243.932 904.922 241.901 904.297 240.391C903.724 238.88 902.839 237.786 901.641 237.109C900.495 236.38 899.089 236.016 897.422 236.016C895.547 236.016 893.984 236.406 892.734 237.188C891.484 237.969 890.547 239.089 889.922 240.547C889.349 242.005 889.062 243.75 889.062 245.781H867.109C867.109 242.135 867.812 238.698 869.219 235.469C870.625 232.188 872.682 229.323 875.391 226.875C878.151 224.375 881.432 222.422 885.234 221.016C889.036 219.609 893.307 218.906 898.047 218.906C903.672 218.906 908.672 219.87 913.047 221.797C917.422 223.672 920.885 226.667 923.438 230.781C925.99 234.896 927.266 240.234 927.266 246.797V284.453C927.266 289.193 927.5 293.047 927.969 296.016C928.49 298.984 929.245 301.536 930.234 303.672V305H908.203C907.214 302.656 906.458 299.74 905.938 296.25C905.469 292.708 905.234 289.141 905.234 285.547ZM907.891 253.359L907.969 266.484H899.922C897.839 266.484 896.016 266.823 894.453 267.5C892.943 268.177 891.667 269.141 890.625 270.391C889.583 271.589 888.802 272.995 888.281 274.609C887.812 276.224 887.578 277.943 887.578 279.766C887.578 281.797 887.865 283.516 888.438 284.922C889.01 286.328 889.87 287.396 891.016 288.125C892.161 288.854 893.516 289.219 895.078 289.219C897.474 289.219 899.557 288.724 901.328 287.734C903.099 286.745 904.401 285.547 905.234 284.141C906.12 282.734 906.406 281.432 906.094 280.234L911.094 288.75C910.469 290.677 909.609 292.682 908.516 294.766C907.474 296.849 906.146 298.776 904.531 300.547C902.917 302.318 900.911 303.776 898.516 304.922C896.172 306.016 893.385 306.562 890.156 306.562C885.625 306.562 881.484 305.521 877.734 303.438C873.984 301.354 871.016 298.438 868.828 294.688C866.693 290.938 865.625 286.484 865.625 281.328C865.625 277.057 866.302 273.203 867.656 269.766C869.062 266.276 871.146 263.333 873.906 260.938C876.667 258.49 880.156 256.615 884.375 255.312C888.594 254.01 893.542 253.359 899.219 253.359H907.891ZM965.312 239.297V305H943.438V220.469H964.062L965.312 239.297ZM985.234 219.844L984.922 241.641C983.932 241.432 982.734 241.276 981.328 241.172C979.974 241.068 978.776 241.016 977.734 241.016C975.286 241.016 973.203 241.406 971.484 242.188C969.766 242.917 968.333 244.036 967.188 245.547C966.094 247.005 965.26 248.828 964.688 251.016C964.115 253.203 963.776 255.677 963.672 258.438L959.531 256.875C959.531 251.354 959.948 246.302 960.781 241.719C961.667 237.083 962.969 233.073 964.688 229.688C966.406 226.25 968.464 223.594 970.859 221.719C973.307 219.844 976.068 218.906 979.141 218.906C980.182 218.906 981.276 219.01 982.422 219.219C983.62 219.375 984.557 219.583 985.234 219.844Z" fill="white"/>
<path d="M261.992 430H250.117L250.195 423.867H261.992C266.055 423.867 269.44 423.021 272.148 421.328C274.857 419.609 276.888 417.214 278.242 414.141C279.622 411.042 280.312 407.422 280.312 403.281V399.805C280.312 396.549 279.922 393.659 279.141 391.133C278.359 388.581 277.214 386.432 275.703 384.688C274.193 382.917 272.344 381.576 270.156 380.664C267.995 379.753 265.508 379.297 262.695 379.297H249.883V373.125H262.695C266.419 373.125 269.818 373.75 272.891 375C275.964 376.224 278.607 378.008 280.82 380.352C283.06 382.669 284.779 385.482 285.977 388.789C287.174 392.07 287.773 395.768 287.773 399.883V403.281C287.773 407.396 287.174 411.107 285.977 414.414C284.779 417.695 283.047 420.495 280.781 422.812C278.542 425.13 275.833 426.914 272.656 428.164C269.505 429.388 265.951 430 261.992 430ZM254.141 373.125V430H246.602V373.125H254.141ZM315.547 430.781C312.604 430.781 309.935 430.286 307.539 429.297C305.169 428.281 303.125 426.862 301.406 425.039C299.714 423.216 298.411 421.055 297.5 418.555C296.589 416.055 296.133 413.32 296.133 410.352V408.711C296.133 405.273 296.641 402.214 297.656 399.531C298.672 396.823 300.052 394.531 301.797 392.656C303.542 390.781 305.521 389.362 307.734 388.398C309.948 387.435 312.24 386.953 314.609 386.953C317.63 386.953 320.234 387.474 322.422 388.516C324.635 389.557 326.445 391.016 327.852 392.891C329.258 394.74 330.299 396.927 330.977 399.453C331.654 401.953 331.992 404.688 331.992 407.656V410.898H300.43V405H324.766V404.453C324.661 402.578 324.271 400.755 323.594 398.984C322.943 397.214 321.901 395.755 320.469 394.609C319.036 393.464 317.083 392.891 314.609 392.891C312.969 392.891 311.458 393.242 310.078 393.945C308.698 394.622 307.513 395.638 306.523 396.992C305.534 398.346 304.766 400 304.219 401.953C303.672 403.906 303.398 406.159 303.398 408.711V410.352C303.398 412.357 303.672 414.245 304.219 416.016C304.792 417.76 305.612 419.297 306.68 420.625C307.773 421.953 309.089 422.995 310.625 423.75C312.188 424.505 313.958 424.883 315.938 424.883C318.49 424.883 320.651 424.362 322.422 423.32C324.193 422.279 325.742 420.885 327.07 419.141L331.445 422.617C330.534 423.997 329.375 425.312 327.969 426.562C326.562 427.812 324.831 428.828 322.773 429.609C320.742 430.391 318.333 430.781 315.547 430.781ZM365.039 418.789C365.039 417.747 364.805 416.784 364.336 415.898C363.893 414.987 362.969 414.167 361.562 413.438C360.182 412.682 358.099 412.031 355.312 411.484C352.969 410.99 350.846 410.404 348.945 409.727C347.07 409.049 345.469 408.229 344.141 407.266C342.839 406.302 341.836 405.169 341.133 403.867C340.43 402.565 340.078 401.042 340.078 399.297C340.078 397.63 340.443 396.055 341.172 394.57C341.927 393.086 342.982 391.771 344.336 390.625C345.716 389.479 347.37 388.581 349.297 387.93C351.224 387.279 353.372 386.953 355.742 386.953C359.128 386.953 362.018 387.552 364.414 388.75C366.81 389.948 368.646 391.549 369.922 393.555C371.198 395.534 371.836 397.734 371.836 400.156H364.609C364.609 398.984 364.258 397.852 363.555 396.758C362.878 395.638 361.875 394.714 360.547 393.984C359.245 393.255 357.643 392.891 355.742 392.891C353.737 392.891 352.109 393.203 350.859 393.828C349.635 394.427 348.737 395.195 348.164 396.133C347.617 397.07 347.344 398.06 347.344 399.102C347.344 399.883 347.474 400.586 347.734 401.211C348.021 401.81 348.516 402.37 349.219 402.891C349.922 403.385 350.911 403.854 352.188 404.297C353.464 404.74 355.091 405.182 357.07 405.625C360.534 406.406 363.385 407.344 365.625 408.438C367.865 409.531 369.531 410.872 370.625 412.461C371.719 414.049 372.266 415.977 372.266 418.242C372.266 420.091 371.875 421.784 371.094 423.32C370.339 424.857 369.232 426.185 367.773 427.305C366.341 428.398 364.622 429.258 362.617 429.883C360.638 430.482 358.411 430.781 355.938 430.781C352.214 430.781 349.062 430.117 346.484 428.789C343.906 427.461 341.953 425.742 340.625 423.633C339.297 421.523 338.633 419.297 338.633 416.953H345.898C346.003 418.932 346.576 420.508 347.617 421.68C348.659 422.826 349.935 423.646 351.445 424.141C352.956 424.609 354.453 424.844 355.938 424.844C357.917 424.844 359.57 424.583 360.898 424.062C362.253 423.542 363.281 422.826 363.984 421.914C364.688 421.003 365.039 419.961 365.039 418.789ZM406.68 422.773V401.016C406.68 399.349 406.341 397.904 405.664 396.68C405.013 395.43 404.023 394.466 402.695 393.789C401.367 393.112 399.727 392.773 397.773 392.773C395.951 392.773 394.349 393.086 392.969 393.711C391.615 394.336 390.547 395.156 389.766 396.172C389.01 397.188 388.633 398.281 388.633 399.453H381.406C381.406 397.943 381.797 396.445 382.578 394.961C383.359 393.477 384.479 392.135 385.938 390.938C387.422 389.714 389.193 388.75 391.25 388.047C393.333 387.318 395.651 386.953 398.203 386.953C401.276 386.953 403.984 387.474 406.328 388.516C408.698 389.557 410.547 391.133 411.875 393.242C413.229 395.326 413.906 397.943 413.906 401.094V420.781C413.906 422.188 414.023 423.685 414.258 425.273C414.518 426.862 414.896 428.229 415.391 429.375V430H407.852C407.487 429.167 407.201 428.06 406.992 426.68C406.784 425.273 406.68 423.971 406.68 422.773ZM407.93 404.375L408.008 409.453H400.703C398.646 409.453 396.81 409.622 395.195 409.961C393.581 410.273 392.227 410.755 391.133 411.406C390.039 412.057 389.206 412.878 388.633 413.867C388.06 414.831 387.773 415.964 387.773 417.266C387.773 418.594 388.073 419.805 388.672 420.898C389.271 421.992 390.169 422.865 391.367 423.516C392.591 424.141 394.089 424.453 395.859 424.453C398.073 424.453 400.026 423.984 401.719 423.047C403.411 422.109 404.753 420.964 405.742 419.609C406.758 418.255 407.305 416.94 407.383 415.664L410.469 419.141C410.286 420.234 409.792 421.445 408.984 422.773C408.177 424.102 407.096 425.378 405.742 426.602C404.414 427.799 402.826 428.802 400.977 429.609C399.154 430.391 397.096 430.781 394.805 430.781C391.94 430.781 389.427 430.221 387.266 429.102C385.13 427.982 383.464 426.484 382.266 424.609C381.094 422.708 380.508 420.586 380.508 418.242C380.508 415.977 380.951 413.984 381.836 412.266C382.721 410.521 383.997 409.076 385.664 407.93C387.331 406.758 389.336 405.872 391.68 405.273C394.023 404.674 396.641 404.375 399.531 404.375H407.93ZM434.922 430H427.695V384.062C427.695 380.859 428.32 378.151 429.57 375.938C430.82 373.724 432.604 372.044 434.922 370.898C437.24 369.753 439.987 369.18 443.164 369.18C445.039 369.18 446.875 369.414 448.672 369.883C450.469 370.326 452.318 370.885 454.219 371.562L453.008 377.656C451.81 377.188 450.417 376.745 448.828 376.328C447.266 375.885 445.547 375.664 443.672 375.664C440.573 375.664 438.333 376.367 436.953 377.773C435.599 379.154 434.922 381.25 434.922 384.062V430ZM443.555 387.734V393.281H421.016V387.734H443.555ZM457.773 387.734V430H450.547V387.734H457.773ZM467.734 409.336V408.438C467.734 405.391 468.177 402.565 469.062 399.961C469.948 397.331 471.224 395.052 472.891 393.125C474.557 391.172 476.576 389.661 478.945 388.594C481.315 387.5 483.971 386.953 486.914 386.953C489.883 386.953 492.552 387.5 494.922 388.594C497.318 389.661 499.349 391.172 501.016 393.125C502.708 395.052 503.997 397.331 504.883 399.961C505.768 402.565 506.211 405.391 506.211 408.438V409.336C506.211 412.383 505.768 415.208 504.883 417.812C503.997 420.417 502.708 422.695 501.016 424.648C499.349 426.576 497.331 428.086 494.961 429.18C492.617 430.247 489.961 430.781 486.992 430.781C484.023 430.781 481.354 430.247 478.984 429.18C476.615 428.086 474.583 426.576 472.891 424.648C471.224 422.695 469.948 420.417 469.062 417.812C468.177 415.208 467.734 412.383 467.734 409.336ZM474.961 408.438V409.336C474.961 411.445 475.208 413.438 475.703 415.312C476.198 417.161 476.94 418.802 477.93 420.234C478.945 421.667 480.208 422.799 481.719 423.633C483.229 424.44 484.987 424.844 486.992 424.844C488.971 424.844 490.703 424.44 492.188 423.633C493.698 422.799 494.948 421.667 495.938 420.234C496.927 418.802 497.669 417.161 498.164 415.312C498.685 413.438 498.945 411.445 498.945 409.336V408.438C498.945 406.354 498.685 404.388 498.164 402.539C497.669 400.664 496.914 399.01 495.898 397.578C494.909 396.12 493.659 394.974 492.148 394.141C490.664 393.307 488.919 392.891 486.914 392.891C484.935 392.891 483.19 393.307 481.68 394.141C480.195 394.974 478.945 396.12 477.93 397.578C476.94 399.01 476.198 400.664 475.703 402.539C475.208 404.388 474.961 406.354 474.961 408.438ZM562.07 373.047H562.695V379.18H562.07C558.242 379.18 555.039 379.805 552.461 381.055C549.883 382.279 547.839 383.932 546.328 386.016C544.818 388.073 543.724 390.391 543.047 392.969C542.396 395.547 542.07 398.164 542.07 400.82V409.18C542.07 411.706 542.37 413.945 542.969 415.898C543.568 417.826 544.388 419.453 545.43 420.781C546.471 422.109 547.643 423.112 548.945 423.789C550.273 424.466 551.654 424.805 553.086 424.805C554.753 424.805 556.237 424.492 557.539 423.867C558.841 423.216 559.935 422.318 560.82 421.172C561.732 420 562.422 418.62 562.891 417.031C563.359 415.443 563.594 413.698 563.594 411.797C563.594 410.104 563.385 408.477 562.969 406.914C562.552 405.326 561.914 403.919 561.055 402.695C560.195 401.445 559.115 400.469 557.812 399.766C556.536 399.036 555.013 398.672 553.242 398.672C551.237 398.672 549.362 399.167 547.617 400.156C545.898 401.12 544.479 402.396 543.359 403.984C542.266 405.547 541.641 407.253 541.484 409.102L537.656 409.062C538.021 406.146 538.698 403.659 539.688 401.602C540.703 399.518 541.953 397.826 543.438 396.523C544.948 395.195 546.628 394.232 548.477 393.633C550.352 393.008 552.331 392.695 554.414 392.695C557.253 392.695 559.701 393.229 561.758 394.297C563.815 395.365 565.508 396.797 566.836 398.594C568.164 400.365 569.141 402.37 569.766 404.609C570.417 406.823 570.742 409.102 570.742 411.445C570.742 414.128 570.365 416.641 569.609 418.984C568.854 421.328 567.721 423.385 566.211 425.156C564.727 426.927 562.891 428.307 560.703 429.297C558.516 430.286 555.977 430.781 553.086 430.781C550.013 430.781 547.331 430.156 545.039 428.906C542.747 427.63 540.846 425.938 539.336 423.828C537.826 421.719 536.693 419.375 535.938 416.797C535.182 414.219 534.805 411.602 534.805 408.945V405.547C534.805 401.536 535.208 397.604 536.016 393.75C536.823 389.896 538.216 386.406 540.195 383.281C542.201 380.156 544.974 377.669 548.516 375.82C552.057 373.971 556.576 373.047 562.07 373.047ZM599.688 407.266V406.875C599.688 401.198 600.326 396.068 601.602 391.484C602.878 386.875 604.505 382.839 606.484 379.375C608.464 375.911 610.547 373.047 612.734 370.781C614.922 368.49 616.94 366.836 618.789 365.82L620.312 370.586C618.776 371.758 617.214 373.372 615.625 375.43C614.062 377.487 612.617 380.013 611.289 383.008C609.987 386.003 608.932 389.479 608.125 393.438C607.318 397.396 606.914 401.849 606.914 406.797V407.344C606.914 412.292 607.318 416.758 608.125 420.742C608.932 424.701 609.987 428.19 611.289 431.211C612.617 434.232 614.062 436.797 615.625 438.906C617.214 441.042 618.776 442.734 620.312 443.984L618.789 448.359C616.94 447.344 614.922 445.69 612.734 443.398C610.547 441.133 608.464 438.268 606.484 434.805C604.505 431.367 602.878 427.344 601.602 422.734C600.326 418.125 599.688 412.969 599.688 407.266ZM653.242 420.234V387.734H660.508V430H653.594L653.242 420.234ZM654.609 411.328L657.617 411.25C657.617 414.062 657.318 416.667 656.719 419.062C656.146 421.432 655.208 423.49 653.906 425.234C652.604 426.979 650.898 428.346 648.789 429.336C646.68 430.299 644.115 430.781 641.094 430.781C639.036 430.781 637.148 430.482 635.43 429.883C633.737 429.284 632.279 428.359 631.055 427.109C629.831 425.859 628.88 424.232 628.203 422.227C627.552 420.221 627.227 417.812 627.227 415V387.734H634.453V415.078C634.453 416.979 634.661 418.555 635.078 419.805C635.521 421.029 636.107 422.005 636.836 422.734C637.591 423.438 638.424 423.932 639.336 424.219C640.273 424.505 641.237 424.648 642.227 424.648C645.299 424.648 647.734 424.062 649.531 422.891C651.328 421.693 652.617 420.091 653.398 418.086C654.206 416.055 654.609 413.802 654.609 411.328ZM678.711 396.133V430H671.445V387.734H678.32L678.711 396.133ZM677.227 407.266L673.867 407.148C673.893 404.258 674.271 401.589 675 399.141C675.729 396.667 676.81 394.518 678.242 392.695C679.674 390.872 681.458 389.466 683.594 388.477C685.729 387.461 688.203 386.953 691.016 386.953C692.995 386.953 694.818 387.24 696.484 387.812C698.151 388.359 699.596 389.232 700.82 390.43C702.044 391.628 702.995 393.164 703.672 395.039C704.349 396.914 704.688 399.18 704.688 401.836V430H697.461V402.188C697.461 399.974 697.083 398.203 696.328 396.875C695.599 395.547 694.557 394.583 693.203 393.984C691.849 393.359 690.26 393.047 688.438 393.047C686.302 393.047 684.518 393.424 683.086 394.18C681.654 394.935 680.508 395.977 679.648 397.305C678.789 398.633 678.164 400.156 677.773 401.875C677.409 403.568 677.227 405.365 677.227 407.266ZM704.609 403.281L699.766 404.766C699.792 402.448 700.169 400.221 700.898 398.086C701.654 395.951 702.734 394.049 704.141 392.383C705.573 390.716 707.331 389.401 709.414 388.438C711.497 387.448 713.88 386.953 716.562 386.953C718.828 386.953 720.833 387.253 722.578 387.852C724.349 388.451 725.833 389.375 727.031 390.625C728.255 391.849 729.18 393.424 729.805 395.352C730.43 397.279 730.742 399.57 730.742 402.227V430H723.477V402.148C723.477 399.779 723.099 397.943 722.344 396.641C721.615 395.312 720.573 394.388 719.219 393.867C717.891 393.32 716.302 393.047 714.453 393.047C712.865 393.047 711.458 393.32 710.234 393.867C709.01 394.414 707.982 395.169 707.148 396.133C706.315 397.07 705.677 398.151 705.234 399.375C704.818 400.599 704.609 401.901 704.609 403.281ZM778.438 424.844C780.156 424.844 781.745 424.492 783.203 423.789C784.661 423.086 785.859 422.122 786.797 420.898C787.734 419.648 788.268 418.229 788.398 416.641H795.273C795.143 419.141 794.297 421.471 792.734 423.633C791.198 425.768 789.18 427.5 786.68 428.828C784.18 430.13 781.432 430.781 778.438 430.781C775.26 430.781 772.487 430.221 770.117 429.102C767.773 427.982 765.82 426.445 764.258 424.492C762.721 422.539 761.562 420.299 760.781 417.773C760.026 415.221 759.648 412.526 759.648 409.688V408.047C759.648 405.208 760.026 402.526 760.781 400C761.562 397.448 762.721 395.195 764.258 393.242C765.82 391.289 767.773 389.753 770.117 388.633C772.487 387.513 775.26 386.953 778.438 386.953C781.745 386.953 784.635 387.63 787.109 388.984C789.583 390.312 791.523 392.135 792.93 394.453C794.362 396.745 795.143 399.349 795.273 402.266H788.398C788.268 400.521 787.773 398.945 786.914 397.539C786.081 396.133 784.935 395.013 783.477 394.18C782.044 393.32 780.365 392.891 778.438 392.891C776.224 392.891 774.362 393.333 772.852 394.219C771.367 395.078 770.182 396.25 769.297 397.734C768.438 399.193 767.812 400.82 767.422 402.617C767.057 404.388 766.875 406.198 766.875 408.047V409.688C766.875 411.536 767.057 413.359 767.422 415.156C767.786 416.953 768.398 418.581 769.258 420.039C770.143 421.497 771.328 422.669 772.812 423.555C774.323 424.414 776.198 424.844 778.438 424.844ZM828.32 422.773V401.016C828.32 399.349 827.982 397.904 827.305 396.68C826.654 395.43 825.664 394.466 824.336 393.789C823.008 393.112 821.367 392.773 819.414 392.773C817.591 392.773 815.99 393.086 814.609 393.711C813.255 394.336 812.188 395.156 811.406 396.172C810.651 397.188 810.273 398.281 810.273 399.453H803.047C803.047 397.943 803.438 396.445 804.219 394.961C805 393.477 806.12 392.135 807.578 390.938C809.062 389.714 810.833 388.75 812.891 388.047C814.974 387.318 817.292 386.953 819.844 386.953C822.917 386.953 825.625 387.474 827.969 388.516C830.339 389.557 832.188 391.133 833.516 393.242C834.87 395.326 835.547 397.943 835.547 401.094V420.781C835.547 422.188 835.664 423.685 835.898 425.273C836.159 426.862 836.536 428.229 837.031 429.375V430H829.492C829.128 429.167 828.841 428.06 828.633 426.68C828.424 425.273 828.32 423.971 828.32 422.773ZM829.57 404.375L829.648 409.453H822.344C820.286 409.453 818.451 409.622 816.836 409.961C815.221 410.273 813.867 410.755 812.773 411.406C811.68 412.057 810.846 412.878 810.273 413.867C809.701 414.831 809.414 415.964 809.414 417.266C809.414 418.594 809.714 419.805 810.312 420.898C810.911 421.992 811.81 422.865 813.008 423.516C814.232 424.141 815.729 424.453 817.5 424.453C819.714 424.453 821.667 423.984 823.359 423.047C825.052 422.109 826.393 420.964 827.383 419.609C828.398 418.255 828.945 416.94 829.023 415.664L832.109 419.141C831.927 420.234 831.432 421.445 830.625 422.773C829.818 424.102 828.737 425.378 827.383 426.602C826.055 427.799 824.466 428.802 822.617 429.609C820.794 430.391 818.737 430.781 816.445 430.781C813.581 430.781 811.068 430.221 808.906 429.102C806.771 427.982 805.104 426.484 803.906 424.609C802.734 422.708 802.148 420.586 802.148 418.242C802.148 415.977 802.591 413.984 803.477 412.266C804.362 410.521 805.638 409.076 807.305 407.93C808.971 406.758 810.977 405.872 813.32 405.273C815.664 404.674 818.281 404.375 821.172 404.375H829.57ZM854.141 394.375V430H846.914V387.734H853.945L854.141 394.375ZM867.344 387.5L867.305 394.219C866.706 394.089 866.133 394.01 865.586 393.984C865.065 393.932 864.466 393.906 863.789 393.906C862.122 393.906 860.651 394.167 859.375 394.688C858.099 395.208 857.018 395.938 856.133 396.875C855.247 397.812 854.544 398.932 854.023 400.234C853.529 401.51 853.203 402.917 853.047 404.453L851.016 405.625C851.016 403.073 851.263 400.677 851.758 398.438C852.279 396.198 853.073 394.219 854.141 392.5C855.208 390.755 856.562 389.401 858.203 388.438C859.87 387.448 861.849 386.953 864.141 386.953C864.661 386.953 865.26 387.018 865.938 387.148C866.615 387.253 867.083 387.37 867.344 387.5ZM893.672 387.734V393.281H870.82V387.734H893.672ZM878.555 377.461H885.781V419.531C885.781 420.964 886.003 422.044 886.445 422.773C886.888 423.503 887.461 423.984 888.164 424.219C888.867 424.453 889.622 424.57 890.43 424.57C891.029 424.57 891.654 424.518 892.305 424.414C892.982 424.284 893.49 424.18 893.828 424.102L893.867 430C893.294 430.182 892.539 430.352 891.602 430.508C890.69 430.69 889.583 430.781 888.281 430.781C886.51 430.781 884.883 430.43 883.398 429.727C881.914 429.023 880.729 427.852 879.844 426.211C878.984 424.544 878.555 422.305 878.555 419.492V377.461ZM927.07 422.773V401.016C927.07 399.349 926.732 397.904 926.055 396.68C925.404 395.43 924.414 394.466 923.086 393.789C921.758 393.112 920.117 392.773 918.164 392.773C916.341 392.773 914.74 393.086 913.359 393.711C912.005 394.336 910.938 395.156 910.156 396.172C909.401 397.188 909.023 398.281 909.023 399.453H901.797C901.797 397.943 902.188 396.445 902.969 394.961C903.75 393.477 904.87 392.135 906.328 390.938C907.812 389.714 909.583 388.75 911.641 388.047C913.724 387.318 916.042 386.953 918.594 386.953C921.667 386.953 924.375 387.474 926.719 388.516C929.089 389.557 930.938 391.133 932.266 393.242C933.62 395.326 934.297 397.943 934.297 401.094V420.781C934.297 422.188 934.414 423.685 934.648 425.273C934.909 426.862 935.286 428.229 935.781 429.375V430H928.242C927.878 429.167 927.591 428.06 927.383 426.68C927.174 425.273 927.07 423.971 927.07 422.773ZM928.32 404.375L928.398 409.453H921.094C919.036 409.453 917.201 409.622 915.586 409.961C913.971 410.273 912.617 410.755 911.523 411.406C910.43 412.057 909.596 412.878 909.023 413.867C908.451 414.831 908.164 415.964 908.164 417.266C908.164 418.594 908.464 419.805 909.062 420.898C909.661 421.992 910.56 422.865 911.758 423.516C912.982 424.141 914.479 424.453 916.25 424.453C918.464 424.453 920.417 423.984 922.109 423.047C923.802 422.109 925.143 420.964 926.133 419.609C927.148 418.255 927.695 416.94 927.773 415.664L930.859 419.141C930.677 420.234 930.182 421.445 929.375 422.773C928.568 424.102 927.487 425.378 926.133 426.602C924.805 427.799 923.216 428.802 921.367 429.609C919.544 430.391 917.487 430.781 915.195 430.781C912.331 430.781 909.818 430.221 907.656 429.102C905.521 427.982 903.854 426.484 902.656 424.609C901.484 422.708 900.898 420.586 900.898 418.242C900.898 415.977 901.341 413.984 902.227 412.266C903.112 410.521 904.388 409.076 906.055 407.93C907.721 406.758 909.727 405.872 912.07 405.273C914.414 404.674 917.031 404.375 919.922 404.375H928.32ZM928.359 370.781L933.242 371.211C933.242 373.112 932.865 374.779 932.109 376.211C931.354 377.643 930.339 378.75 929.062 379.531C927.812 380.312 926.393 380.703 924.805 380.703C923.477 380.703 922.383 380.521 921.523 380.156C920.664 379.766 919.896 379.336 919.219 378.867C918.542 378.372 917.826 377.943 917.07 377.578C916.341 377.188 915.43 376.992 914.336 376.992C913.242 376.992 912.318 377.409 911.562 378.242C910.833 379.076 910.469 380.104 910.469 381.328L905.586 381.094C905.586 379.193 905.951 377.526 906.68 376.094C907.435 374.635 908.451 373.503 909.727 372.695C911.003 371.862 912.422 371.445 913.984 371.445C915.104 371.445 916.081 371.641 916.914 372.031C917.773 372.396 918.581 372.826 919.336 373.32C920.091 373.789 920.872 374.219 921.68 374.609C922.487 374.974 923.411 375.156 924.453 375.156C925.547 375.156 926.471 374.74 927.227 373.906C927.982 373.047 928.359 372.005 928.359 370.781ZM943.75 409.336V408.438C943.75 405.391 944.193 402.565 945.078 399.961C945.964 397.331 947.24 395.052 948.906 393.125C950.573 391.172 952.591 389.661 954.961 388.594C957.331 387.5 959.987 386.953 962.93 386.953C965.898 386.953 968.568 387.5 970.938 388.594C973.333 389.661 975.365 391.172 977.031 393.125C978.724 395.052 980.013 397.331 980.898 399.961C981.784 402.565 982.227 405.391 982.227 408.438V409.336C982.227 412.383 981.784 415.208 980.898 417.812C980.013 420.417 978.724 422.695 977.031 424.648C975.365 426.576 973.346 428.086 970.977 429.18C968.633 430.247 965.977 430.781 963.008 430.781C960.039 430.781 957.37 430.247 955 429.18C952.63 428.086 950.599 426.576 948.906 424.648C947.24 422.695 945.964 420.417 945.078 417.812C944.193 415.208 943.75 412.383 943.75 409.336ZM950.977 408.438V409.336C950.977 411.445 951.224 413.438 951.719 415.312C952.214 417.161 952.956 418.802 953.945 420.234C954.961 421.667 956.224 422.799 957.734 423.633C959.245 424.44 961.003 424.844 963.008 424.844C964.987 424.844 966.719 424.44 968.203 423.633C969.714 422.799 970.964 421.667 971.953 420.234C972.943 418.802 973.685 417.161 974.18 415.312C974.701 413.438 974.961 411.445 974.961 409.336V408.438C974.961 406.354 974.701 404.388 974.18 402.539C973.685 400.664 972.93 399.01 971.914 397.578C970.924 396.12 969.674 394.974 968.164 394.141C966.68 393.307 964.935 392.891 962.93 392.891C960.951 392.891 959.206 393.307 957.695 394.141C956.211 394.974 954.961 396.12 953.945 397.578C952.956 399.01 952.214 400.664 951.719 402.539C951.224 404.388 950.977 406.354 950.977 408.438ZM1037.77 421.797V370H1045.04V430H1038.4L1037.77 421.797ZM1009.34 409.336V408.516C1009.34 405.286 1009.73 402.357 1010.51 399.727C1011.32 397.07 1012.45 394.792 1013.91 392.891C1015.39 390.99 1017.15 389.531 1019.18 388.516C1021.24 387.474 1023.53 386.953 1026.05 386.953C1028.71 386.953 1031.03 387.422 1033.01 388.359C1035.01 389.271 1036.71 390.612 1038.09 392.383C1039.49 394.128 1040.6 396.237 1041.41 398.711C1042.21 401.185 1042.77 403.984 1043.09 407.109V410.703C1042.8 413.802 1042.24 416.589 1041.41 419.062C1040.6 421.536 1039.49 423.646 1038.09 425.391C1036.71 427.135 1035.01 428.477 1033.01 429.414C1031 430.326 1028.66 430.781 1025.98 430.781C1023.5 430.781 1021.24 430.247 1019.18 429.18C1017.15 428.112 1015.39 426.615 1013.91 424.688C1012.45 422.76 1011.32 420.495 1010.51 417.891C1009.73 415.26 1009.34 412.409 1009.34 409.336ZM1016.6 408.516V409.336C1016.6 411.445 1016.81 413.424 1017.23 415.273C1017.67 417.122 1018.35 418.75 1019.26 420.156C1020.17 421.562 1021.33 422.669 1022.73 423.477C1024.14 424.258 1025.82 424.648 1027.77 424.648C1030.17 424.648 1032.14 424.141 1033.67 423.125C1035.23 422.109 1036.48 420.768 1037.42 419.102C1038.36 417.435 1039.09 415.625 1039.61 413.672V404.258C1039.3 402.826 1038.84 401.445 1038.24 400.117C1037.67 398.763 1036.91 397.565 1035.98 396.523C1035.07 395.456 1033.93 394.609 1032.58 393.984C1031.25 393.359 1029.67 393.047 1027.85 393.047C1025.87 393.047 1024.17 393.464 1022.73 394.297C1021.33 395.104 1020.17 396.224 1019.26 397.656C1018.35 399.062 1017.67 400.703 1017.23 402.578C1016.81 404.427 1016.6 406.406 1016.6 408.516ZM1073.83 430.781C1070.89 430.781 1068.22 430.286 1065.82 429.297C1063.45 428.281 1061.41 426.862 1059.69 425.039C1057.99 423.216 1056.69 421.055 1055.78 418.555C1054.87 416.055 1054.41 413.32 1054.41 410.352V408.711C1054.41 405.273 1054.92 402.214 1055.94 399.531C1056.95 396.823 1058.33 394.531 1060.08 392.656C1061.82 390.781 1063.8 389.362 1066.02 388.398C1068.23 387.435 1070.52 386.953 1072.89 386.953C1075.91 386.953 1078.52 387.474 1080.7 388.516C1082.92 389.557 1084.73 391.016 1086.13 392.891C1087.54 394.74 1088.58 396.927 1089.26 399.453C1089.93 401.953 1090.27 404.688 1090.27 407.656V410.898H1058.71V405H1083.05V404.453C1082.94 402.578 1082.55 400.755 1081.88 398.984C1081.22 397.214 1080.18 395.755 1078.75 394.609C1077.32 393.464 1075.36 392.891 1072.89 392.891C1071.25 392.891 1069.74 393.242 1068.36 393.945C1066.98 394.622 1065.79 395.638 1064.8 396.992C1063.82 398.346 1063.05 400 1062.5 401.953C1061.95 403.906 1061.68 406.159 1061.68 408.711V410.352C1061.68 412.357 1061.95 414.245 1062.5 416.016C1063.07 417.76 1063.89 419.297 1064.96 420.625C1066.05 421.953 1067.37 422.995 1068.91 423.75C1070.47 424.505 1072.24 424.883 1074.22 424.883C1076.77 424.883 1078.93 424.362 1080.7 423.32C1082.47 422.279 1084.02 420.885 1085.35 419.141L1089.73 422.617C1088.82 423.997 1087.66 425.312 1086.25 426.562C1084.84 427.812 1083.11 428.828 1081.05 429.609C1079.02 430.391 1076.61 430.781 1073.83 430.781ZM1136.09 430.781C1133.15 430.781 1130.48 430.286 1128.09 429.297C1125.72 428.281 1123.67 426.862 1121.95 425.039C1120.26 423.216 1118.96 421.055 1118.05 418.555C1117.14 416.055 1116.68 413.32 1116.68 410.352V408.711C1116.68 405.273 1117.19 402.214 1118.2 399.531C1119.22 396.823 1120.6 394.531 1122.34 392.656C1124.09 390.781 1126.07 389.362 1128.28 388.398C1130.49 387.435 1132.79 386.953 1135.16 386.953C1138.18 386.953 1140.78 387.474 1142.97 388.516C1145.18 389.557 1146.99 391.016 1148.4 392.891C1149.8 394.74 1150.85 396.927 1151.52 399.453C1152.2 401.953 1152.54 404.688 1152.54 407.656V410.898H1120.98V405H1145.31V404.453C1145.21 402.578 1144.82 400.755 1144.14 398.984C1143.49 397.214 1142.45 395.755 1141.02 394.609C1139.58 393.464 1137.63 392.891 1135.16 392.891C1133.52 392.891 1132.01 393.242 1130.62 393.945C1129.24 394.622 1128.06 395.638 1127.07 396.992C1126.08 398.346 1125.31 400 1124.77 401.953C1124.22 403.906 1123.95 406.159 1123.95 408.711V410.352C1123.95 412.357 1124.22 414.245 1124.77 416.016C1125.34 417.76 1126.16 419.297 1127.23 420.625C1128.32 421.953 1129.64 422.995 1131.17 423.75C1132.73 424.505 1134.51 424.883 1136.48 424.883C1139.04 424.883 1141.2 424.362 1142.97 423.32C1144.74 422.279 1146.29 420.885 1147.62 419.141L1151.99 422.617C1151.08 423.997 1149.92 425.312 1148.52 426.562C1147.11 427.812 1145.38 428.828 1143.32 429.609C1141.29 430.391 1138.88 430.781 1136.09 430.781ZM1168.16 396.133V430H1160.9V387.734H1167.77L1168.16 396.133ZM1166.68 407.266L1163.32 407.148C1163.35 404.258 1163.72 401.589 1164.45 399.141C1165.18 396.667 1166.26 394.518 1167.7 392.695C1169.13 390.872 1170.91 389.466 1173.05 388.477C1175.18 387.461 1177.66 386.953 1180.47 386.953C1182.45 386.953 1184.27 387.24 1185.94 387.812C1187.6 388.359 1189.05 389.232 1190.27 390.43C1191.5 391.628 1192.45 393.164 1193.12 395.039C1193.8 396.914 1194.14 399.18 1194.14 401.836V430H1186.91V402.188C1186.91 399.974 1186.54 398.203 1185.78 396.875C1185.05 395.547 1184.01 394.583 1182.66 393.984C1181.3 393.359 1179.71 393.047 1177.89 393.047C1175.76 393.047 1173.97 393.424 1172.54 394.18C1171.11 394.935 1169.96 395.977 1169.1 397.305C1168.24 398.633 1167.62 400.156 1167.23 401.875C1166.86 403.568 1166.68 405.365 1166.68 407.266ZM1194.06 403.281L1189.22 404.766C1189.24 402.448 1189.62 400.221 1190.35 398.086C1191.11 395.951 1192.19 394.049 1193.59 392.383C1195.03 390.716 1196.78 389.401 1198.87 388.438C1200.95 387.448 1203.33 386.953 1206.02 386.953C1208.28 386.953 1210.29 387.253 1212.03 387.852C1213.8 388.451 1215.29 389.375 1216.48 390.625C1217.71 391.849 1218.63 393.424 1219.26 395.352C1219.88 397.279 1220.2 399.57 1220.2 402.227V430H1212.93V402.148C1212.93 399.779 1212.55 397.943 1211.8 396.641C1211.07 395.312 1210.03 394.388 1208.67 393.867C1207.34 393.32 1205.76 393.047 1203.91 393.047C1202.32 393.047 1200.91 393.32 1199.69 393.867C1198.46 394.414 1197.43 395.169 1196.6 396.133C1195.77 397.07 1195.13 398.151 1194.69 399.375C1194.27 400.599 1194.06 401.901 1194.06 403.281ZM1231.09 370H1238.36V421.797L1237.73 430H1231.09V370ZM1266.91 408.516V409.336C1266.91 412.409 1266.55 415.26 1265.82 417.891C1265.09 420.495 1264.02 422.76 1262.62 424.688C1261.21 426.615 1259.49 428.112 1257.46 429.18C1255.43 430.247 1253.1 430.781 1250.47 430.781C1247.79 430.781 1245.43 430.326 1243.4 429.414C1241.39 428.477 1239.7 427.135 1238.32 425.391C1236.94 423.646 1235.83 421.536 1235 419.062C1234.19 416.589 1233.63 413.802 1233.32 410.703V407.109C1233.63 403.984 1234.19 401.185 1235 398.711C1235.83 396.237 1236.94 394.128 1238.32 392.383C1239.7 390.612 1241.39 389.271 1243.4 388.359C1245.4 387.422 1247.73 386.953 1250.39 386.953C1253.05 386.953 1255.4 387.474 1257.46 388.516C1259.52 389.531 1261.24 390.99 1262.62 392.891C1264.02 394.792 1265.09 397.07 1265.82 399.727C1266.55 402.357 1266.91 405.286 1266.91 408.516ZM1259.65 409.336V408.516C1259.65 406.406 1259.45 404.427 1259.06 402.578C1258.67 400.703 1258.05 399.062 1257.19 397.656C1256.33 396.224 1255.2 395.104 1253.79 394.297C1252.38 393.464 1250.65 393.047 1248.59 393.047C1246.77 393.047 1245.18 393.359 1243.83 393.984C1242.5 394.609 1241.37 395.456 1240.43 396.523C1239.49 397.565 1238.72 398.763 1238.12 400.117C1237.55 401.445 1237.12 402.826 1236.84 404.258V413.672C1237.25 415.495 1237.93 417.253 1238.87 418.945C1239.83 420.612 1241.11 421.979 1242.7 423.047C1244.31 424.115 1246.3 424.648 1248.67 424.648C1250.62 424.648 1252.29 424.258 1253.67 423.477C1255.08 422.669 1256.21 421.562 1257.07 420.156C1257.96 418.75 1258.61 417.122 1259.02 415.273C1259.44 413.424 1259.65 411.445 1259.65 409.336ZM1300.98 422.773V401.016C1300.98 399.349 1300.64 397.904 1299.96 396.68C1299.31 395.43 1298.32 394.466 1296.99 393.789C1295.66 393.112 1294.02 392.773 1292.07 392.773C1290.25 392.773 1288.65 393.086 1287.27 393.711C1285.91 394.336 1284.84 395.156 1284.06 396.172C1283.31 397.188 1282.93 398.281 1282.93 399.453H1275.7C1275.7 397.943 1276.09 396.445 1276.88 394.961C1277.66 393.477 1278.78 392.135 1280.23 390.938C1281.72 389.714 1283.49 388.75 1285.55 388.047C1287.63 387.318 1289.95 386.953 1292.5 386.953C1295.57 386.953 1298.28 387.474 1300.62 388.516C1302.99 389.557 1304.84 391.133 1306.17 393.242C1307.53 395.326 1308.2 397.943 1308.2 401.094V420.781C1308.2 422.188 1308.32 423.685 1308.55 425.273C1308.82 426.862 1309.19 428.229 1309.69 429.375V430H1302.15C1301.78 429.167 1301.5 428.06 1301.29 426.68C1301.08 425.273 1300.98 423.971 1300.98 422.773ZM1302.23 404.375L1302.3 409.453H1295C1292.94 409.453 1291.11 409.622 1289.49 409.961C1287.88 410.273 1286.52 410.755 1285.43 411.406C1284.34 412.057 1283.5 412.878 1282.93 413.867C1282.36 414.831 1282.07 415.964 1282.07 417.266C1282.07 418.594 1282.37 419.805 1282.97 420.898C1283.57 421.992 1284.47 422.865 1285.66 423.516C1286.89 424.141 1288.39 424.453 1290.16 424.453C1292.37 424.453 1294.32 423.984 1296.02 423.047C1297.71 422.109 1299.05 420.964 1300.04 419.609C1301.05 418.255 1301.6 416.94 1301.68 415.664L1304.77 419.141C1304.58 420.234 1304.09 421.445 1303.28 422.773C1302.47 424.102 1301.39 425.378 1300.04 426.602C1298.71 427.799 1297.12 428.802 1295.27 429.609C1293.45 430.391 1291.39 430.781 1289.1 430.781C1286.24 430.781 1283.72 430.221 1281.56 429.102C1279.43 427.982 1277.76 426.484 1276.56 424.609C1275.39 422.708 1274.8 420.586 1274.8 418.242C1274.8 415.977 1275.25 413.984 1276.13 412.266C1277.02 410.521 1278.29 409.076 1279.96 407.93C1281.63 406.758 1283.63 405.872 1285.98 405.273C1288.32 404.674 1290.94 404.375 1293.83 404.375H1302.23ZM1326.8 394.375V430H1319.57V387.734H1326.6L1326.8 394.375ZM1340 387.5L1339.96 394.219C1339.36 394.089 1338.79 394.01 1338.24 393.984C1337.72 393.932 1337.12 393.906 1336.45 393.906C1334.78 393.906 1333.31 394.167 1332.03 394.688C1330.76 395.208 1329.67 395.938 1328.79 396.875C1327.9 397.812 1327.2 398.932 1326.68 400.234C1326.18 401.51 1325.86 402.917 1325.7 404.453L1323.67 405.625C1323.67 403.073 1323.92 400.677 1324.41 398.438C1324.93 396.198 1325.73 394.219 1326.8 392.5C1327.86 390.755 1329.22 389.401 1330.86 388.438C1332.53 387.448 1334.51 386.953 1336.8 386.953C1337.32 386.953 1337.92 387.018 1338.59 387.148C1339.27 387.253 1339.74 387.37 1340 387.5ZM1372.5 446.25V395.859L1373.12 387.734H1379.77V446.25H1372.5ZM1344.1 409.336V408.516C1344.1 405.286 1344.48 402.357 1345.23 399.727C1345.99 397.07 1347.1 394.792 1348.55 392.891C1350.01 390.99 1351.77 389.531 1353.83 388.516C1355.91 387.474 1358.28 386.953 1360.94 386.953C1363.59 386.953 1365.92 387.422 1367.93 388.359C1369.96 389.271 1371.68 390.612 1373.09 392.383C1374.52 394.128 1375.65 396.237 1376.48 398.711C1377.32 401.185 1377.89 403.984 1378.2 407.109V410.703C1377.92 413.802 1377.36 416.589 1376.52 419.062C1375.69 421.536 1374.56 423.646 1373.12 425.391C1371.72 427.135 1369.99 428.477 1367.93 429.414C1365.9 430.326 1363.54 430.781 1360.86 430.781C1358.26 430.781 1355.91 430.247 1353.83 429.18C1351.77 428.112 1350.01 426.615 1348.55 424.688C1347.12 422.76 1346.02 420.495 1345.23 417.891C1344.48 415.26 1344.1 412.409 1344.1 409.336ZM1351.37 408.516V409.336C1351.37 411.445 1351.59 413.438 1352.03 415.312C1352.47 417.161 1353.15 418.802 1354.06 420.234C1355 421.667 1356.17 422.799 1357.58 423.633C1359.01 424.44 1360.7 424.844 1362.66 424.844C1365.05 424.844 1367.04 424.323 1368.63 423.281C1370.25 422.24 1371.54 420.872 1372.5 419.18C1373.46 417.461 1374.21 415.625 1374.73 413.672V404.258C1374.44 402.826 1373.98 401.432 1373.36 400.078C1372.76 398.724 1371.98 397.513 1371.02 396.445C1370.05 395.352 1368.88 394.492 1367.5 393.867C1366.15 393.216 1364.56 392.891 1362.73 392.891C1360.76 392.891 1359.05 393.307 1357.62 394.141C1356.18 394.974 1355 396.12 1354.06 397.578C1353.15 399.01 1352.47 400.664 1352.03 402.539C1351.59 404.414 1351.37 406.406 1351.37 408.516ZM1417.23 420.234V387.734H1424.49V430H1417.58L1417.23 420.234ZM1418.59 411.328L1421.6 411.25C1421.6 414.062 1421.3 416.667 1420.7 419.062C1420.13 421.432 1419.19 423.49 1417.89 425.234C1416.59 426.979 1414.88 428.346 1412.77 429.336C1410.66 430.299 1408.1 430.781 1405.08 430.781C1403.02 430.781 1401.13 430.482 1399.41 429.883C1397.72 429.284 1396.26 428.359 1395.04 427.109C1393.82 425.859 1392.86 424.232 1392.19 422.227C1391.54 420.221 1391.21 417.812 1391.21 415V387.734H1398.44V415.078C1398.44 416.979 1398.65 418.555 1399.06 419.805C1399.51 421.029 1400.09 422.005 1400.82 422.734C1401.58 423.438 1402.41 423.932 1403.32 424.219C1404.26 424.505 1405.22 424.648 1406.21 424.648C1409.28 424.648 1411.72 424.062 1413.52 422.891C1415.31 421.693 1416.6 420.091 1417.38 418.086C1418.19 416.055 1418.59 413.802 1418.59 411.328ZM1453.05 430.781C1450.1 430.781 1447.43 430.286 1445.04 429.297C1442.67 428.281 1440.62 426.862 1438.91 425.039C1437.21 423.216 1435.91 421.055 1435 418.555C1434.09 416.055 1433.63 413.32 1433.63 410.352V408.711C1433.63 405.273 1434.14 402.214 1435.16 399.531C1436.17 396.823 1437.55 394.531 1439.3 392.656C1441.04 390.781 1443.02 389.362 1445.23 388.398C1447.45 387.435 1449.74 386.953 1452.11 386.953C1455.13 386.953 1457.73 387.474 1459.92 388.516C1462.14 389.557 1463.95 391.016 1465.35 392.891C1466.76 394.74 1467.8 396.927 1468.48 399.453C1469.15 401.953 1469.49 404.688 1469.49 407.656V410.898H1437.93V405H1462.27V404.453C1462.16 402.578 1461.77 400.755 1461.09 398.984C1460.44 397.214 1459.4 395.755 1457.97 394.609C1456.54 393.464 1454.58 392.891 1452.11 392.891C1450.47 392.891 1448.96 393.242 1447.58 393.945C1446.2 394.622 1445.01 395.638 1444.02 396.992C1443.03 398.346 1442.27 400 1441.72 401.953C1441.17 403.906 1440.9 406.159 1440.9 408.711V410.352C1440.9 412.357 1441.17 414.245 1441.72 416.016C1442.29 417.76 1443.11 419.297 1444.18 420.625C1445.27 421.953 1446.59 422.995 1448.12 423.75C1449.69 424.505 1451.46 424.883 1453.44 424.883C1455.99 424.883 1458.15 424.362 1459.92 423.32C1461.69 422.279 1463.24 420.885 1464.57 419.141L1468.95 422.617C1468.03 423.997 1466.88 425.312 1465.47 426.562C1464.06 427.812 1462.33 428.828 1460.27 429.609C1458.24 430.391 1455.83 430.781 1453.05 430.781ZM1494.57 406.875V407.266C1494.57 412.969 1493.93 418.125 1492.66 422.734C1491.38 427.344 1489.75 431.367 1487.77 434.805C1485.79 438.268 1483.71 441.133 1481.52 443.398C1479.34 445.69 1477.32 447.344 1475.47 448.359L1473.95 443.984C1475.48 442.812 1477.03 441.172 1478.59 439.062C1480.16 436.979 1481.6 434.401 1482.93 431.328C1484.26 428.281 1485.33 424.766 1486.13 420.781C1486.94 416.771 1487.34 412.292 1487.34 407.344V406.797C1487.34 401.849 1486.91 397.383 1486.05 393.398C1485.2 389.388 1484.08 385.859 1482.7 382.812C1481.34 379.766 1479.88 377.201 1478.32 375.117C1476.78 373.008 1475.33 371.38 1473.95 370.234L1475.47 365.82C1477.32 366.836 1479.34 368.49 1481.52 370.781C1483.71 373.047 1485.79 375.911 1487.77 379.375C1489.75 382.839 1491.38 386.875 1492.66 391.484C1493.93 396.068 1494.57 401.198 1494.57 406.875Z" fill="white"/>
</svg>
